<?xml version="1.0" encoding="UTF-8" standalone="no"?>
<!DOCTYPE svg PUBLIC "-//W3C//DTD SVG 1.1//EN" "http://www.w3.org/Graphics/SVG/1.1/DTD/svg11.dtd">
<svg xmlns="http://www.w3.org/2000/svg" version="1.1" viewBox="0.00 0.00 64.00 64.00">
<path fill="#000000" d="
  M 53.80 11.70
  C 55.13 11.96 56.65 11.97 56.92 13.71
  Q 57.31 16.24 56.87 18.42
  A 2.00 2.00 0.0 0 1 55.32 19.98
  Q 31.92 24.92 8.52 19.91
  A 1.76 1.74 0.3 0 1 7.17 18.56
  Q 6.62 16.02 7.18 13.43
  A 1.77 1.76 -89.9 0 1 8.53 12.07
  Q 31.04 7.28 53.80 11.70
  Z"
/>
<path fill="#000000" d="
  M 54.14 27.72
  Q 55.21 27.93 56.19 28.42
  Q 56.63 28.64 56.75 29.12
  Q 57.48 32.04 56.79 34.63
  A 1.88 1.87 1.5 0 1 55.37 35.97
  Q 31.66 40.95 8.50 35.88
  A 1.78 1.78 0.0 0 1 7.15 34.52
  Q 6.63 32.02 7.16 29.46
  A 1.76 1.76 0.0 0 1 8.52 28.09
  Q 30.89 23.28 54.14 27.72
  Z"
/>
<path fill="#000000" d="
  M 55.53 44.07
  A 1.66 1.65 -0.2 0 1 56.81 45.33
  Q 57.43 48.01 56.80 50.60
  A 1.83 1.82 -89.2 0 1 55.41 51.96
  Q 32.01 56.89 8.55 51.91
  A 1.81 1.81 0.0 0 1 7.14 50.50
  C 6.79 48.81 6.35 44.29 8.78 44.00
  Q 9.27 43.95 9.75 43.85
  Q 32.69 39.20 55.53 44.07
  Z"
/>
</svg>
