<?xml version="1.0" encoding="UTF-8" standalone="no"?>
<!DOCTYPE svg PUBLIC "-//W3C//DTD SVG 1.1//EN" "http://www.w3.org/Graphics/SVG/1.1/DTD/svg11.dtd">
<svg xmlns="http://www.w3.org/2000/svg" version="1.1" viewBox="0.00 0.00 64.00 64.00">
<path fill="#000000" d="
  M 53.82 49.57
  Q 52.93 53.03 49.41 53.89
  Q 32.40 58.04 14.64 53.94
  C 12.04 53.34 10.49 51.40 9.92 48.87
  Q 6.07 31.68 10.02 14.79
  C 10.64 12.11 12.48 10.53 15.07 9.95
  Q 32.30 6.09 49.12 10.01
  Q 53.18 10.95 54.09 15.21
  Q 57.98 33.26 53.82 49.57
  Z
  M 47.96 19.00
  A 2.96 2.96 0.0 0 0 45.00 16.04
  A 2.96 2.96 0.0 0 0 42.04 19.00
  A 2.96 2.96 0.0 0 0 45.00 21.96
  A 2.96 2.96 0.0 0 0 47.96 19.00
  Z
  M 43.96 31.99
  A 11.96 11.96 0.0 0 0 32.00 20.03
  A 11.96 11.96 0.0 0 0 20.04 31.99
  A 11.96 11.96 0.0 0 0 32.00 43.95
  A 11.96 11.96 0.0 0 0 43.96 31.99
  Z"
/>
<circle fill="#000000" cx="32.00" cy="32.00" r="7.97"/>
</svg>
