<?xml version="1.0" encoding="UTF-8" standalone="no"?>
<!DOCTYPE svg PUBLIC "-//W3C//DTD SVG 1.1//EN" "http://www.w3.org/Graphics/SVG/1.1/DTD/svg11.dtd">
<svg xmlns="http://www.w3.org/2000/svg" version="1.1" viewBox="0.00 0.00 64.00 64.00">
<path fill="#000000" d="
  M 53.69 11.85
  C 58.57 14.09 59.66 18.30 60.34 23.31
  Q 61.46 31.53 60.47 39.96
  C 59.62 47.32 55.83 52.38 48.43 53.26
  Q 32.85 55.10 16.69 53.40
  C 9.97 52.70 5.02 49.07 3.91 42.26
  Q 1.74 28.96 4.85 17.92
  C 6.10 13.51 9.83 11.52 14.26 10.94
  Q 33.40 8.43 51.83 11.29
  A 7.02 6.98 -28.1 0 1 53.69 11.85
  Z
  M 28.08 34.19
  Q 31.46 35.67 33.79 34.89
  Q 44.16 31.44 53.12 22.49
  C 56.14 19.48 54.52 15.67 50.52 15.09
  Q 32.01 12.44 13.57 15.09
  C 10.56 15.52 7.66 18.58 10.13 21.52
  C 14.67 26.93 21.20 31.17 28.08 34.19
  Z"
/>
</svg>
