<?xml version="1.0" encoding="UTF-8" standalone="no"?>
<!DOCTYPE svg PUBLIC "-//W3C//DTD SVG 1.1//EN" "http://www.w3.org/Graphics/SVG/1.1/DTD/svg11.dtd">
<svg xmlns="http://www.w3.org/2000/svg" version="1.1" viewBox="0.00 0.00 64.00 64.00">
<path fill="#000000" d="
  M 53.85 49.51
  Q 52.95 53.12 48.93 54.04
  Q 31.45 58.00 14.36 53.84
  C 11.91 53.25 10.38 51.14 9.87 48.72
  Q 6.02 30.28 10.21 14.32
  Q 11.10 10.89 14.86 10.02
  Q 32.12 6.02 49.19 10.04
  Q 53.14 10.97 54.05 15.07
  Q 58.00 32.92 53.85 49.51
  Z
  M 38.94 31.96
  Q 38.97 27.68 42.11 27.20
  Q 44.88 26.79 44.77 23.98
  L 44.67 21.45
  Q 44.56 18.66 41.79 19.04
  Q 30.66 20.58 30.22 31.96
  Q 30.19 32.64 29.51 32.60
  Q 27.61 32.48 25.77 33.11
  C 23.08 34.04 23.53 38.39 24.66 40.28
  Q 24.94 40.75 25.48 40.84
  L 29.73 41.51
  Q 30.14 41.58 30.15 41.99
  L 30.36 50.73
  Q 30.39 52.06 31.73 52.01
  L 37.60 51.76
  Q 38.90 51.71 38.95 50.40
  L 39.23 41.74
  Q 39.25 41.03 39.95 41.10
  Q 45.97 41.69 45.97 34.31
  Q 45.97 33.59 45.28 33.37
  Q 42.56 32.49 39.52 32.54
  A 0.57 0.57 0.0 0 1 38.94 31.96
  Z"
/>
</svg>
